<?xml version="1.0" encoding="utf-8"?>
<!-- Generator: Adobe Illustrator 18.0.0, SVG Export Plug-In . SVG Version: 6.00 Build 0)  -->
<svg version="1.2" baseProfile="tiny" id="Layer_1" xmlns="http://www.w3.org/2000/svg" xmlns:xlink="http://www.w3.org/1999/xlink"
	 x="0px" y="0px" viewBox="0 0 128 128" xml:space="preserve">
<path fill-rule="evenodd" fill="#8ED1BF" d="M64,1c34.8,0,63,28.2,63,63s-28.2,63-63,63S1,98.8,1,64S29.2,1,64,1z"/>
<path fill="#FFFFFF" d="M48.1,26.6h30.5v-4H40.8L57.6,49c-14.5,0.8-26,12.9-26,27.6c0,15.3,12.4,27.7,27.7,27.7
	c9.4,0,17.9-4.4,24.3-14.3l8.1,12.6h4.7L85.9,86.1l10.1-17.3h-4.7l-7.8,13.6L48.1,26.6z M59.3,100.5c-13.1,0-23.8-10.8-23.8-23.9
	s10.6-23.9,23.8-23.9h0.6l21.3,33.6C75.5,96.1,67.9,100.5,59.3,100.5z"/>
</svg>
