<?xml version="1.0" encoding="utf-8"?>
<!-- Generator: Adobe Illustrator 18.0.0, SVG Export Plug-In . SVG Version: 6.00 Build 0)  -->
<svg version="1.2" baseProfile="tiny" id="Layer_1" xmlns="http://www.w3.org/2000/svg" xmlns:xlink="http://www.w3.org/1999/xlink"
	 x="0px" y="0px" viewBox="0 0 44 44" xml:space="preserve">
<path fill-rule="evenodd" fill="#8ED1BF" d="M22,0c12.2,0,22,9.8,22,22s-9.8,22-22,22S0,34.2,0,22S9.8,0,22,0z"/>
<path fill="#FFFFFF" d="M13.4,31.6V28h3.5v3.5H13.4z M17.7,31.6V28h3.9v3.5H17.7z M13.4,27.2v-3.9h3.5v3.9H13.4z M17.7,27.2v-3.9
	h3.9v3.9H17.7z M13.4,22.5V19h3.5v3.5H13.4z M22.4,31.6V28h3.9v3.5H22.4z M17.7,22.5V19h3.9v3.5H17.7z M27.1,31.6V28h3.5v3.5H27.1z
	 M22.4,27.2v-3.9h3.9v3.9H22.4z M18.1,16.6c0,0.2-0.2,0.4-0.4,0.4h-0.8c-0.2,0-0.4-0.2-0.4-0.4v-3.5c0-0.2,0.2-0.4,0.4-0.4h0.8
	c0.2,0,0.4,0.2,0.4,0.4V16.6z M27.1,27.2v-3.9h3.5v3.9H27.1z M22.4,22.5V19h3.9v3.5H22.4z M27.1,22.5V19h3.5v3.5H27.1z M27.5,16.6
	c0,0.2-0.2,0.4-0.4,0.4h-0.8c-0.2,0-0.4-0.2-0.4-0.4v-3.5c0-0.2,0.2-0.4,0.4-0.4h0.8c0.2,0,0.4,0.2,0.4,0.4V16.6z M32.2,15.8
	c0-0.9-0.7-1.6-1.6-1.6h-1.6v-1.2c0-1.1-0.9-2-2-2h-0.8c-1.1,0-2,0.9-2,2v1.2h-4.7v-1.2c0-1.1-0.9-2-2-2h-0.8c-1.1,0-2,0.9-2,2v1.2
	h-1.6c-0.9,0-1.6,0.7-1.6,1.6v15.7c0,0.9,0.7,1.6,1.6,1.6h17.3c0.9,0,1.6-0.7,1.6-1.6V15.8z"/>
</svg>
