<?xml version="1.0" encoding="utf-8"?>
<!-- Generator: Adobe Illustrator 18.0.0, SVG Export Plug-In . SVG Version: 6.00 Build 0)  -->
<svg version="1.2" baseProfile="tiny" id="Layer_1" xmlns="http://www.w3.org/2000/svg" xmlns:xlink="http://www.w3.org/1999/xlink"
	 x="0px" y="0px" viewBox="0 0 44 44" xml:space="preserve">
<path fill-rule="evenodd" fill="#8ED1BF" d="M22,0c12.2,0,22,9.8,22,22s-9.8,22-22,22S0,34.2,0,22S9.8,0,22,0z"/>
<path fill-rule="evenodd" fill="#FFFFFF" d="M22,18.6c-2.9-6.7-11.1-5.1-11.2,2.6c0,4.2,3.9,5.8,6.6,7.5c2.6,1.6,4.4,3.9,4.7,4.9
	c0.2-0.9,2.3-3.3,4.6-4.9c2.6-1.8,6.6-3.3,6.6-7.5C33.1,13.4,24.8,12.2,22,18.6z"/>
</svg>
