<?xml version="1.0" encoding="utf-8"?>
<!-- Generator: Adobe Illustrator 18.0.0, SVG Export Plug-In . SVG Version: 6.00 Build 0)  -->
<svg version="1.2" baseProfile="tiny" id="Layer_1" xmlns="http://www.w3.org/2000/svg" xmlns:xlink="http://www.w3.org/1999/xlink"
	 x="0px" y="0px" viewBox="0 0 44 44" xml:space="preserve">
<path fill-rule="evenodd" fill="#8ED1BF" d="M22,0c12.2,0,22,9.8,22,22s-9.8,22-22,22S0,34.2,0,22S9.8,0,22,0z"/>
<path fill="#FEFFFF" d="M26.1,18.3c0,2.4-1.9,4.3-4.3,4.3s-4.3-1.9-4.3-4.3s1.9-4.3,4.3-4.3S26.1,15.9,26.1,18.3z M30.4,18.3
	c0-4.7-3.8-8.6-8.6-8.6s-8.6,3.8-8.6,8.6c0,1,0.1,2.1,0.6,3l6.1,13c0.3,0.7,1.1,1.2,1.9,1.2c0.8,0,1.6-0.5,1.9-1.2l6.1-13
	C30.3,20.4,30.4,19.3,30.4,18.3z"/>
</svg>
