<?xml version="1.0" encoding="utf-8"?>
<!-- Generator: Adobe Illustrator 18.0.0, SVG Export Plug-In . SVG Version: 6.00 Build 0)  -->
<svg version="1.2" baseProfile="tiny" id="Layer_1" xmlns="http://www.w3.org/2000/svg" xmlns:xlink="http://www.w3.org/1999/xlink"
	 x="0px" y="0px" viewBox="0 0 44 44" xml:space="preserve">
<path fill-rule="evenodd" fill="#8ED1BF" d="M22,0c12.2,0,22,9.8,22,22s-9.8,22-22,22S0,34.2,0,22S9.8,0,22,0z"/>
<path fill="#FFFFFF" d="M31.8,19.1c-0.3,0.4-0.7,0.7-1.1,1c-1.9,1.3-3.7,2.5-5.6,3.8c-0.9,0.7-2.1,1.5-3.3,1.5h0h0
	c-1.2,0-2.4-0.8-3.3-1.5c-1.8-1.3-3.7-2.6-5.5-3.8c-0.4-0.3-0.8-0.6-1.1-1v8.9c0,1,0.8,1.8,1.8,1.8h16.4c1,0,1.8-0.8,1.8-1.8V19.1z
	 M31.8,15.8c0-1-0.8-1.8-1.8-1.8H13.6c-1.2,0-1.8,0.9-1.8,2c0,1,1.1,2.3,1.9,2.8c1.7,1.2,3.5,2.4,5.2,3.6c0.7,0.5,2,1.5,2.9,1.5h0h0
	c0.9,0,2.1-1,2.9-1.5c1.7-1.2,3.5-2.4,5.2-3.6C30.9,18.2,31.8,17,31.8,15.8z"/>
</svg>
